<?xml version="1.0" encoding="utf-8"?>
<!-- Generator: Adobe Illustrator 15.1.0, SVG Export Plug-In . SVG Version: 6.00 Build 0)  -->
<!DOCTYPE svg PUBLIC "-//W3C//DTD SVG 1.1//EN" "http://www.w3.org/Graphics/SVG/1.1/DTD/svg11.dtd">
<svg version="1.1" id="Ebene_1" xmlns="http://www.w3.org/2000/svg" xmlns:xlink="http://www.w3.org/1999/xlink" x="0px" y="0px"
	 width="999px" height="647.647px" viewBox="0 0 999 647.647" enable-background="new 0 0 999 647.647" xml:space="preserve">
<g>
	<path fill="#192226" d="M590,188.115c-2.258-23.107-28.321-40-37.196-40h-21.732c-0.405,0-0.802,0.023-1.2,0.045
		c-0.288-0.021-0.577-0.045-0.871-0.045h-90c-0.734,0-1.449,0.078-2.146,0.208c-0.95-0.131-1.925-0.208-2.925-0.208h-21.732
		c-8.875,0-34.938,16.893-37.196,40v11.309v9.691v148.509c0,8.003,5.373,14.491,12,14.491h13c6.627,0,12-6.488,12-14.491V221.115h15
		v130.629v8.041v233.948c0,7.391,5.373,13.382,12,13.382h24c6.627,0,12-5.991,12-13.382V372.115h18v221.618
		c0,7.391,5.373,13.382,12,13.382h24c6.627,0,12-5.991,12-13.382V359.785v-8.041V221.115h12v137.329c0,7.55,5.373,13.671,12,13.671
		h13c6.627,0,12-6.121,12-13.671V209.205c0-0.018-0.002-0.035-0.002-0.055c0-0.012,0.002-0.023,0.002-0.035V188.115z"/>
</g>
<g>
	<circle fill="#192226" cx="603.23" cy="433.936" r="9.849"/>
</g>
<g>
	<circle fill="#192226" cx="600.23" cy="553.936" r="9.849"/>
</g>
<g>
	<path fill="#192226" d="M573.196,604.126l-3.393-9.408c-0.233,0.085-0.349,0.179-0.35,0.18c1.994-1.654,4.542-12.067,5.36-21.887
		c0.18-4.746,5.489-145.355,5.489-160.029c0-13.217-9.898-26.646-9.999-26.781l8.005-5.994c0.489,0.652,11.994,16.182,11.994,32.775
		c0,15.039-5.276,154.586-5.501,160.52l-0.013,0.22C583.961,583.814,581.354,601.183,573.196,604.126z"/>
</g>
<g>
	<path fill="#192226" d="M529.537,71.115c-5.502-21.507-25.008-37.407-48.229-37.407s-42.729,15.9-48.23,37.407
		c-1.013,3.957-1.552,8.103-1.552,12.375c0,27.493,22.289,49.782,49.782,49.782c27.494,0,49.781-22.289,49.781-49.782
		C531.089,79.217,530.549,75.071,529.537,71.115z"/>
</g>
</svg>
