<svg enable-background="new 0 0 999 390.34" height="390.34" viewBox="0 0 999 390.34" width="999" xmlns="http://www.w3.org/2000/svg"><path d="m968 185.351c0-62.757-39.936-112.093-99.344-119.877-1.564-.738-740.952-.785-741.525-.108-59.988 7.44-101.131 56.944-101.131 119.985 0 68.459 57.517 121.957 126 121.957 5.449 0 716.115-1.69 717.987-2.868 57.23-9.906 98.013-58.179 98.013-119.089z" fill="#fff"/><path d="m152 309.808c-70.855 0-128.5-55.831-128.5-124.457 0-64.561 42.488-114.921 103.323-122.467l.007.059c1.138-.142 3.291-.157 7.814-.189 4.888-.035 12.051-.067 21.184-.098 17.66-.058 43.222-.107 75.975-.148 60.979-.077 144.55-.119 235.317-.119 101.231 0 200.9.053 273.452.146 108.733.141 125.392.277 128.399.531l.01-.07c29.665 3.887 55.101 17.793 73.555 40.213 18.294 22.227 27.964 50.631 27.964 82.143 0 61.369-41.157 111.353-100.086 121.553l-.007-.039c-1.762.264-7.533.342-31.564.537-18.611.15-45.881.312-81.052.482-59.401.288-141.982.602-245.447.932-179.506.571-358.214.991-360.344.991zm-24.532-241.965-.029.004c-58.254 7.224-98.939 55.545-98.939 117.504 0 65.869 55.402 119.457 123.5 119.457 6.896 0 703.742-1.677 717.513-2.823l.048-.009c56.488-9.776 95.939-57.734 95.939-116.625 0-61.626-39.957-109.902-97.169-117.398l-.015-.002c-6.244-.369-206.192-.562-401.196-.562-195.229-.001-334.5.185-339.652.454z" fill="#192226"/><path d="m413.045 81.128s42.279 5.658 46.235 57.127c3.959 51.469-13.573 62.215-18.099 99.545s3.105 92.193 2.262 101.809c-.147 1.691-4.521 33.37-42.986 21.493-38.461-11.878-11.312-63.347-23.189-114.817s-13.573-97.283-7.918-116.514c5.656-19.232 15.972-46.804 43.695-48.643z" fill="#fff"/><path d="m416.187 366.259c-4.976 0-10.517-.932-16.468-2.769-25.664-7.926-24.236-32.362-22.583-60.656 1.005-17.206 2.145-36.706-2.305-55.987-11.006-47.699-14.247-96.133-7.88-117.781 6.618-22.501 17.818-48.567 45.928-50.432l.25-.018.248.033c.456.062 11.312 1.59 22.748 9.702 10.531 7.47 23.53 22.158 25.648 49.712 2.477 32.212-3.465 49.126-9.211 65.483-3.535 10.067-7.192 20.478-8.898 34.554-3.064 25.277-.51 58.568 1.182 80.599.797 10.382 1.373 17.882 1.088 21.128-.641 7.351-7.235 26.432-29.747 26.432zm-3.249-282.617c-24.824 1.818-35.053 25.969-41.189 46.834-5.03 17.104-4.686 60.464 7.955 115.246 4.611 19.98 3.449 39.863 2.424 57.404-1.655 28.341-2.852 48.817 19.068 55.587 5.472 1.69 10.516 2.546 14.991 2.546 22.599 0 24.747-21.648 24.767-21.867.248-2.838-.344-10.549-1.092-20.31-1.707-22.226-4.285-55.815-1.162-81.583 1.772-14.617 5.521-25.289 9.146-35.609 5.831-16.6 11.339-32.279 8.941-63.443-1.573-20.473-9.436-35.91-23.368-45.884-9.577-6.856-18.917-8.659-20.481-8.921z" fill="#dd052b"/><path d="m588.045 82.128s-42.279 5.658-46.235 57.127c-3.959 51.469 13.573 62.215 18.099 99.545s-3.105 92.193-2.262 101.809c.147 1.691 4.521 33.37 42.986 21.493 38.461-11.878 11.312-63.347 23.189-114.817s13.573-97.283 7.918-116.514c-5.656-19.232-15.972-46.804-43.695-48.643z" fill="#fff"/><path d="m584.905 366.808c-.001 0-.001 0-.002 0-22.513 0-29.106-18.855-29.747-26.208-.285-3.245.291-10.632 1.088-21.013 1.691-22.03 4.246-55.266 1.182-80.543-1.706-14.076-5.363-24.458-8.898-34.525-5.746-16.357-11.688-33.258-9.211-65.47 2.118-27.554 15.117-42.234 25.648-49.704 11.436-8.112 22.292-9.637 22.748-9.698l.248-.031.25.017c28.109 1.865 39.311 27.932 45.928 50.433 6.367 21.649 3.126 70.083-7.881 117.781-4.449 19.281-3.31 38.782-2.305 55.988 1.654 28.294 3.082 52.505-22.582 60.431-5.951 1.836-11.491 2.542-16.466 2.542zm3.247-282.166c-1.553.261-10.898 2.061-20.481 8.921-13.933 9.974-21.795 25.411-23.368 45.884-2.397 31.164 3.11 46.844 8.941 63.443 3.625 10.32 7.374 20.992 9.146 35.609 3.123 25.768.545 59.357-1.162 81.583-.748 9.761-1.34 17.245-1.092 20.082.02.22 2.168 21.644 24.768 21.644h.001c4.474 0 9.517-.631 14.989-2.32 21.92-6.77 20.724-27.133 19.068-55.475-1.025-17.541-2.188-37.366 2.424-57.347 12.641-54.783 12.984-98.114 7.955-115.218-6.136-20.866-16.364-44.988-41.189-46.806z" fill="#dd052b"/><g fill="none"><path d="m498.908 161.988 32.18-12.538-32.18-12.538-32.179 12.538z"/><path d="m441.285 237.8c-.078.645-.152 1.297-.223 1.951l25.666 10.001 32.178-12.538-32.178-12.537-24.987 9.735c-.163 1.106-.316 2.234-.456 3.388z"/><path d="m459.959 152.088c.021 7.261-.447 13.599-1.252 19.312l8.021 3.126 32.18-12.538-32.18-12.538z"/><path d="m457.949 127.797 8.781-3.422-10.732-4.182c.754 2.388 1.41 4.92 1.951 7.604z"/><path d="m459.384 138.255c.229 2.973.383 5.805.475 8.52l6.87 2.676 32.18-12.538-32.178-12.537-8.781 3.422c.655 3.258 1.148 6.734 1.434 10.457z"/><path d="m445.736 216.498 20.992 8.179 32.18-12.538-32.179-12.538-17.749 6.916c-1.12 3.232-2.22 6.521-3.244 9.981z"/><path d="m441.741 234.412 24.987-9.735-20.992-8.179c-1.597 5.408-3.006 11.233-3.995 17.914z"/><path d="m455.998 120.193 10.732 4.182 32.177-12.536-32.179-12.538-17.213 6.706c2.539 4.048 4.764 8.746 6.483 14.186z"/><path d="m448.98 206.517 17.749-6.916-13.538-5.274c-1.356 4.127-2.798 8.115-4.211 12.19z"/><path d="m457.568 178.096c-1.186 5.905-2.717 11.174-4.377 16.23l13.538 5.274 32.178-12.537-32.179-12.537z"/><path d="m498.907 187.063 32.179-12.538-32.178-12.537-32.179 12.538z"/><path d="m431.215 88.062c6.212 3.732 12.943 9.398 18.301 17.945l17.213-6.706-32.18-12.538z"/><path d="m434.551-13.538 32.178-12.538-32.178-12.538-32.18 12.538z"/><path d="m434.549 11.537 32.18-12.538-32.178-12.537-32.18 12.538z"/><path d="m434.551-38.614 32.177-12.537-32.179-12.537-32.178 12.537z"/><path d="m434.549-63.688 32.18-12.539-32.179-12.537-32.179 12.538z"/><path d="m434.551 36.612 32.177-12.537-32.179-12.538-32.178 12.537z"/><path d="m402.371 74.226 32.178 12.537 32.18-12.537-32.178-12.538z"/><path d="m466.73 49.149 32.176-12.537-32.178-12.537-32.177 12.537z"/><path d="m466.729 99.301 32.179-12.538-32.179-12.537-32.18 12.537z"/><path d="m402.371 49.149 32.18 12.539 32.179-12.539-32.179-12.537z"/><path d="m466.729 74.226 32.179-12.539-32.178-12.538-32.179 12.539z"/><path d="m439.844 264.352 26.887 10.476 32.178-12.537-32.18-12.538-26.842 10.458c-.024 1.374-.037 2.755-.043 4.141z"/><path d="m370.193 212.139.641.249c-.025-.157-.048-.312-.072-.471z"/><path d="m370.191 111.838 4.83 1.882c.643-1.529 1.326-3.054 2.056-4.564z"/><path d="m338.014 174.526 29.583 11.525c-.72-8.08-1.123-15.648-1.228-22.573z"/><path d="m370.192 262.289 10.054 3.917c-.174-2.507-.408-5.026-.719-7.555z"/><path d="m338.015 149.45 28.327 11.037c-.023-8.772.453-16.416 1.392-22.615z"/><path d="m370.193 237.214 5.651 2.202c-.293-1.361-.58-2.718-.859-4.069z"/><path d="m434.389 437.878 32.119-12.514-32.036-12.505-32.101 12.527z"/><path d="m370.192 287.364 10.165 3.961c.115-2.64.205-5.316.256-8.021z"/><path d="m466.729 324.978-24.537-9.561c.582 7.639 1.102 14.088 1.316 18.607z"/><path d="m434.472 412.859 32.346-12.621-32.134-12.52-32.313 12.612z"/><path d="m434.684 387.718 32.149-12.549-32.282-12.579-32.18 12.538z"/><path d="m439.887 260.21 26.842-10.458-25.666-10.001c-.7 6.447-1.059 13.369-1.176 20.459z"/><path d="m429.715 360.706 4.836 1.884 32.178-12.537-23.383-9.11c-.709 3.818-3.6 14.476-13.631 19.763z"/><path d="m440.499 289.683 26.229 10.219 32.18-12.537-32.178-12.537-26.443 10.303c.067 1.526.137 3.046.212 4.552z"/><path d="m441.758 309.631 24.971-9.729-26.229-10.219c.352 7.017.807 13.771 1.258 19.948z"/><path d="m402.371 24.074-32.18 12.538 32.18 12.537 32.18-12.537z"/><path d="m440.287 285.13 26.443-10.303-26.887-10.476c-.027 6.92.152 13.939.444 20.779z"/><path d="m434.55-88.764-32.179-12.538-32.179 12.538 32.179 12.538z"/><path d="m413.148 81.128s8.402 1.129 18.066 6.934l3.334-1.299-32.178-12.537-32.178 12.537 17.258 6.724c6.333-6.777 14.624-11.625 25.698-12.359z"/><path d="m402.371 49.149-32.18 12.539 32.18 12.538 32.18-12.538z"/><path d="m466.729 174.526-8.021-3.126c-.328 2.327-.71 4.555-1.139 6.695z"/><path d="m459.959 152.088 6.77-2.638-6.87-2.676c.061 1.825.094 3.596.1 5.314z"/><path d="m338.015 224.677-32.179 12.537 32.178 12.537 32.179-12.537z"/><path d="m380.357 291.325-10.165-3.961-32.178 12.537 32.179 12.538 9.208-3.588c.303-5.6.691-11.468.956-17.526z"/><path d="m338.014 274.827-32.179 12.537 32.18 12.537 32.177-12.537z"/><path d="m379.401 308.852-9.208 3.588 8.884 3.462c.081-2.298.194-4.649.324-7.05z"/><path d="m379.077 315.901-8.884-3.462-32.18 12.538 32.179 12.537 9.353-3.645c-.664-5.451-.697-11.487-.468-17.968z"/><path d="m379.545 333.87-9.353 3.645 10.925 4.256c-.723-2.467-1.232-5.107-1.572-7.901z"/><path d="m370.762 211.917c-1.279-8.323-2.274-16.334-2.99-23.91l-29.758 11.594 32.18 12.538z"/><path d="m338.014 199.601-32.179 12.538 32.18 12.538 32.178-12.538z"/><path d="m374.985 235.347c-1.621-7.852-3.001-15.53-4.151-22.959l-.641-.249-32.179 12.538 32.179 12.537z"/><path d="m381.117 341.771-10.925-4.256-32.179 12.537 32.179 12.538 19.134-7.455c-4.08-3.525-6.649-8.042-8.209-13.364z"/><path d="m380.613 283.304c.105-5.594.033-11.312-.367-17.098l-10.054-3.917-32.179 12.538 32.179 12.537z"/><path d="m338.014 249.751-32.179 12.539 32.179 12.537 32.178-12.538z"/><path d="m379.527 258.651c-.504-4.108-1.203-8.238-2.156-12.367-.531-2.303-1.035-4.59-1.526-6.868l-5.651-2.202-32.18 12.537 32.179 12.538z"/><path d="m402.371 450.354-32.178 12.537 32.178 12.537 32.178-12.537z"/><path d="m402.371 425.386-32.017 12.492 32.017 12.476 32.018-12.476z"/><path d="m370.271 412.859-32.037 12.505 32.12 12.514 32.017-12.492z"/><path d="m402.371 475.428-32.18 12.538 32.18 12.538 32.18-12.538z"/><path d="m434.551 362.59-4.836-1.884c-6.391 3.368-15.678 4.557-29.153.396-4.642-1.434-8.321-3.449-11.235-5.967l-19.134 7.455 32.179 12.538z"/><path d="m434.684 387.718-32.313-12.59-32.311 12.59 32.311 12.612z"/><path d="m370.192-88.764-32.177 12.537 32.178 12.539 32.178-12.538z"/><path d="m434.472 412.859-32.101-12.529-32.1 12.529 32.1 12.527z"/><path d="m370.06 387.718-32.136 12.52 32.347 12.621 32.1-12.529z"/><path d="m370.192 362.59-32.284 12.578 32.152 12.55 32.311-12.59z"/><path d="m338.013 49.149-32.179 12.538 32.18 12.539 32.177-12.538z"/><path d="m402.371 74.226-32.18-12.538-32.177 12.538 32.179 12.537z"/><path d="m402.371 24.074-32.178-12.537-32.178 12.538 32.176 12.537z"/><path d="m338.014 74.226-32.179 12.537 32.18 12.538 32.178-12.538z"/><path d="m338.015 24.075-32.179 12.537 32.177 12.537 32.178-12.537z"/><path d="m369.453 129.771c1.467-4.987 3.252-10.535 5.568-16.051l-4.83-1.882-32.179 12.538 30.013 11.693c.407-2.333.882-4.442 1.428-6.298z"/><path d="m377.077 109.155c2.731-5.66 6.106-11.102 10.374-15.669l-17.258-6.724-32.179 12.538 32.177 12.537z"/><path d="m434.549 11.537-32.178-12.537-32.178 12.537 32.178 12.537z"/><path d="m367.597 186.052-29.583-11.525-32.178 12.537 32.178 12.537 29.758-11.594c-.063-.658-.118-1.304-.175-1.955z"/><path d="m338.015 99.301-32.179 12.538 32.177 12.537 32.178-12.538z"/><path d="m402.371 49.149-32.18-12.537-32.178 12.537 32.178 12.539z"/><path d="m434.549-63.688-32.178-12.538-32.178 12.538 32.178 12.537z"/><path d="m370.193-63.688-32.178 12.537 32.176 12.537 32.18-12.537z"/><path d="m305.836 161.989-32.178 12.536 32.178 12.538 32.178-12.537z"/><path d="m366.369 163.479c-.016-1.011-.025-2.009-.027-2.991l-28.327-11.037-32.179 12.539 32.178 12.537z"/><path d="m305.834 136.913-32.179 12.537 32.181 12.539 32.179-12.539z"/><path d="m370.191-13.538-32.177 12.537 32.179 12.538 32.178-12.537z"/><path d="m434.551-38.614-32.18-12.537-32.18 12.537 32.18 12.538z"/><path d="m367.733 137.872c.093-.615.19-1.218.292-1.803l-30.013-11.693-32.179 12.537 32.181 12.537z"/><path d="m434.551-13.538-32.18-12.538-32.18 12.538 32.18 12.538z"/><path d="m370.191-38.614-32.178 12.538 32.178 12.538 32.18-12.538z"/></g><path d="m434.549 213.212-34.932-13.61 34.934-13.611 19.887 7.748-.296.899c-.94 2.861-1.938 5.701-2.901 8.447-.439 1.25-.879 2.5-1.314 3.76l-.152.436zm-29.424-13.61 29.424 11.464 13.639-5.312c.387-1.115.776-2.223 1.165-3.33.86-2.449 1.745-4.971 2.591-7.51l-17.393-6.776z" fill="#dd052b"/><path d="m453.812 195.642-22.016-8.578 27.111-10.562-.359 1.791c-1.044 5.201-2.403 10.242-4.407 16.346zm-16.507-8.579 15.264 5.947c1.576-4.887 2.73-9.098 3.645-13.313z" fill="#dd052b"/><path d="m402.371 200.675-34.934-13.611 34.934-13.611 34.934 13.611zm-29.425-13.612 29.425 11.465 29.426-11.465-29.426-11.465z" fill="#dd052b"/><path d="m434.551 188.137-34.934-13.611 34.932-13.61 25.259 9.841-.11.784c-.322 2.283-.709 4.555-1.148 6.752l-.107.537zm-29.426-13.612 29.426 11.465 22.143-8.627c.34-1.739.645-3.524.91-5.319l-23.055-8.982z" fill="#dd052b"/><path d="m434.549 163.062-34.932-13.61 34.934-13.611 26.285 10.242.021.659c.062 1.814.096 3.613.102 5.344l.002.686zm-29.424-13.611 29.424 11.464 24.406-9.51c-.01-1.286-.035-2.605-.075-3.939l-24.329-9.479z" fill="#dd052b"/><path d="m459.521 172.79-27.727-10.802 29.16-11.361.004 1.458c.021 6.917-.393 13.281-1.262 19.455zm-22.218-10.802 20.584 8.019c.683-5.248 1.035-10.658 1.07-16.455z" fill="#dd052b"/><path d="m402.371 150.524-34.932-13.611 34.932-13.61 34.934 13.61zm-29.423-13.611 29.423 11.465 29.426-11.465-29.426-11.464z" fill="#dd052b"/><path d="m434.551 288.438-34.934-13.61 34.934-13.611 6.296 2.453-.003.687c-.025 6.385.119 13.167.442 20.731l.03.715zm-29.426-13.611 29.426 11.464 4.707-1.833c-.292-7.042-.428-13.411-.416-19.424l-4.291-1.672z" fill="#dd052b"/><path d="m402.371 175.599-34.932-13.61 34.932-13.61 34.932 13.61zm-29.423-13.611 29.423 11.464 29.424-11.464-29.424-11.464z" fill="#dd052b"/><path d="m440.838 265.812-9.041-3.522 9.115-3.552-.025 1.49c-.023 1.37-.037 2.746-.043 4.129zm-3.533-3.523 1.549.603c.003-.403.007-.807.012-1.211z" fill="#dd052b"/><path d="m441.574 291.175-9.777-3.811 9.429-3.673.061 1.396c.066 1.525.137 3.042.212 4.546zm-4.269-3.811 2.121.826c-.026-.539-.051-1.08-.076-1.622z" fill="#dd052b"/><path d="m434.551 263.362-34.934-13.611 34.933-13.61 7.589 2.956-.082.762c-.652 6.017-1.046 12.869-1.17 20.368l-.012.671zm-29.426-13.611 29.426 11.465 4.348-1.694c.131-6.985.497-13.408 1.089-19.116l-5.438-2.118z" fill="#dd052b"/><path d="m441.917 241.157-10.122-3.943 11.187-4.358-.251 1.702c-.162 1.098-.314 2.217-.453 3.362-.077.64-.15 1.288-.221 1.938zm-4.612-3.943 2.908 1.133c.026-.223.053-.445.08-.667.069-.578.143-1.149.219-1.716z" fill="#dd052b"/><path d="m446.387 217.825-14.592-5.687 18.839-7.339-.708 2.045c-.924 2.666-2.127 6.205-3.23 9.938zm-9.084-5.686 7.787 3.034c.758-2.502 1.545-4.885 2.244-6.941z" fill="#dd052b"/><path d="m434.55 238.287-34.933-13.61 34.932-13.611 12.406 4.834-.26.882c-1.822 6.171-3.082 11.819-3.965 17.777l-.085.575zm-29.425-13.61 29.425 11.464 6.288-2.45c.849-5.557 2.027-10.869 3.682-16.594l-9.971-3.885z" fill="#dd052b"/><path d="m460.909 148.257-29.112-11.344 26.898-10.48.234 1.167c.685 3.401 1.173 6.96 1.451 10.579.223 2.889.383 5.77.477 8.562zm-23.604-11.344 21.496 8.377c-.096-2.285-.234-4.619-.414-6.959-.24-3.124-.641-6.203-1.191-9.167z" fill="#dd052b"/><path d="m402.371 351.125-22.075-8.601-.138-.473c-.719-2.448-1.244-5.086-1.606-8.061l-.094-.771 23.913-9.315 34.934 13.61zm-20.43-10.106 20.43 7.96 29.424-11.464-29.424-11.464-21.735 8.468c.317 2.365.747 4.503 1.305 6.5z" fill="#dd052b"/><path d="m402.371 326.051-24.318-9.476.025-.709c.082-2.303.195-4.661.325-7.068l.035-.645 23.934-9.324 34.934 13.61zm-22.268-10.823 22.269 8.677 29.424-11.465-29.424-11.464-22.006 8.574c-.102 1.926-.193 3.819-.263 5.678z" fill="#dd052b"/><path d="m378.708 335.27-.156-1.278c-.598-4.911-.745-10.501-.475-18.125l.05-1.408 26.998 10.52zm1.323-17.923c-.182 6.163-.068 10.933.362 15.119l19.224-7.488z" fill="#dd052b"/><path d="m378.319 310.347.083-1.549c.104-1.92.218-3.871.333-5.852.22-3.78.448-7.689.623-11.665l.062-1.395 25.705 10.016zm2.974-17.584c-.164 3.509-.365 6.955-.561 10.301-.084 1.445-.168 2.877-.247 4.293l19.132-7.454z" fill="#dd052b"/><path d="m402.371 300.976-23.044-8.979.031-.715c.124-2.84.208-5.455.255-7.997l.013-.67 22.745-8.861 34.934 13.61zm-20.984-10.323 20.984 8.176 29.426-11.465-29.426-11.464-20.771 8.093c-.045 2.132-.116 4.324-.213 6.66z" fill="#dd052b"/><path d="m402.371 275.9-23.078-8.993-.045-.632c-.178-2.577-.418-5.102-.713-7.502l-.095-.771 23.931-9.324 34.934 13.611zm-21.172-10.396 21.172 8.25 29.426-11.465-29.426-11.465-21.759 8.478c.234 2.003.431 4.083.587 6.202z" fill="#dd052b"/><path d="m379.586 284.777.027-1.493c.117-6.205-.002-11.77-.365-17.01l-.108-1.572 25.985 10.125zm1.759-17.069c.262 4.409.358 9.058.292 14.123l17.98-7.004z" fill="#dd052b"/><path d="m416.283 364.759c-4.824-.001-10.213-.91-16.017-2.701-4.669-1.442-8.461-3.459-11.595-6.166l-1.256-1.086 14.955-5.827 29.748 11.591-1.938 1.021c-3.987 2.101-8.662 3.168-13.897 3.168zm-24.986-9.319c2.657 1.998 5.801 3.545 9.56 4.705 5.612 1.734 10.803 2.612 15.427 2.613 4.016 0 7.666-.662 10.887-1.971l-24.799-9.663z" fill="#dd052b"/><path d="m443.31 316.926-11.515-4.486 10.861-4.231.099 1.35c.146 1.992.291 3.921.434 5.783zm-6.005-4.487 3.77 1.469c-.071-.936-.143-1.888-.214-2.854z" fill="#dd052b"/><path d="m389.128 356.285-.456-.394c-4.018-3.471-6.803-7.998-8.514-13.84l-.572-1.951 25.539 9.951zm-6.409-12.817c1.543 4.306 3.785 7.764 6.813 10.514l10.085-3.93z" fill="#dd052b"/><path d="m434.551 137.986-34.934-13.61 34.934-13.611 22.257 8.671.144.456c.779 2.467 1.444 5.059 1.979 7.707l.166.824zm-29.426-13.61 29.426 11.464 22.248-8.668c-.455-2.13-.995-4.218-1.612-6.222l-20.636-8.039z" fill="#dd052b"/><path d="m434.55 313.513-34.933-13.61 34.934-13.611 6.914 2.694.033.646c.391 7.783.904 15.1 1.258 19.926l.053.736zm-29.425-13.611 29.425 11.464 6.157-2.398c-.34-4.688-.807-11.412-1.174-18.588l-4.982-1.942z" fill="#dd052b"/><path d="m378.691 260.05-.157-1.277c-.521-4.25-1.241-8.376-2.138-12.264-.532-2.307-1.037-4.6-1.529-6.882l-.392-1.817 30.65 11.941zm-1.474-19.026c.365 1.672.74 3.35 1.129 5.035.822 3.564 1.498 7.325 2.012 11.195l19.26-7.504z" fill="#dd052b"/><path d="m429.777 361.804-30.16-11.752 34.933-13.61 9.931 3.87-.151.813c-.628 3.383-3.505 14.856-14.147 20.466zm-24.652-11.752 24.521 9.555c8.816-4.875 11.712-14.207 12.552-18.038l-7.648-2.98z" fill="#dd052b"/><path d="m444.107 342.312-12.312-4.798 12.646-4.928.065 1.391c.128 2.723.14 4.54.036 5.719-.021.238-.09.758-.215 1.429zm-6.802-4.797 5.242 2.043c.002-.013.003-.025.004-.035.076-.869.082-2.203.016-4.059z" fill="#dd052b"/><path d="m434.55 338.588-34.933-13.61 34.933-13.611 8.591 3.348.314 4.103c.467 6.079.869 11.329 1.052 15.161l.034.718zm-29.425-13.61 29.425 11.464 7.923-3.087c-.194-3.731-.575-8.694-1.012-14.385l-.219-2.85-6.692-2.607z" fill="#dd052b"/><path d="m402.371 125.449-28.669-11.171.398-.945c.667-1.587 1.365-3.139 2.077-4.613l.171-.354 26.023-10.14 34.934 13.611zm-26.025-12.286 26.025 10.14 29.426-11.465-29.426-11.465-24.563 9.571c-.497 1.04-.986 2.118-1.462 3.219z" fill="#dd052b"/><path d="m402.371 250.824-27.391-10.672-.113-.526c-.293-1.363-.582-2.723-.861-4.077l-.171-.827 28.536-11.118 34.934 13.61zm-25.662-12.144 25.662 9.998 29.424-11.464-29.424-11.464-26.235 10.222c.188.9.38 1.802.573 2.708z" fill="#dd052b"/><path d="m366.487 139.431.258-1.707c.094-.623.193-1.233.295-1.825l.209-1.204 5.7 2.218z" fill="#dd052b"/><path d="m375.072 111.01 1.105-2.289c3.11-6.446 6.56-11.653 10.544-15.917l.463-.495 17.941 6.991zm12.653-16.344c-3.131 3.452-6.012 7.685-8.586 12.612l20.479-7.979z" fill="#dd052b"/><path d="m457.58 121.884-25.783-10.046 18.127-7.063.439.701c2.721 4.339 4.938 9.189 6.588 14.416zm-20.275-10.046 17.07 6.649c-1.415-4.026-3.184-7.799-5.273-11.246z" fill="#dd052b"/><path d="m434.551 112.911-34.934-13.611 31.691-12.348.422.252c7.643 4.592 13.911 10.74 18.633 18.271l.642 1.024zm-29.426-13.611 29.426 11.465 13.463-5.246c-4.383-6.664-10.06-12.157-16.896-16.346z" fill="#dd052b"/><path d="m402.371 100.373-16.658-6.491 1.008-1.078c7.222-7.729 16.091-11.992 26.361-12.674l.1-.006.1.013c.352.048 8.719 1.224 18.449 7.067l1.746 1.049zm-13.156-7.272 13.156 5.126 26.537-10.339c-8.064-4.442-14.924-5.619-15.8-5.755-9.218.636-17.25 4.323-23.893 10.968z" fill="#dd052b"/><path d="m370.193 137.986-3.293-1.282.14-.807c.416-2.386.905-4.542 1.454-6.409 1.183-4.022 3.051-10.073 5.606-16.155l.377-.898 30.648 11.941zm-1.038-2.549 1.038.403 29.424-11.464-24.047-9.369c-2.326 5.685-4.047 11.27-5.158 15.046-.465 1.584-.888 3.391-1.257 5.384z" fill="#dd052b"/><path d="m402.371 225.75-32.433-12.638-.287-1.836 32.72-12.748 34.932 13.61zm-29.423-13.612 29.423 11.466 29.424-11.465-29.424-11.464z" fill="#dd052b"/><path d="m369.963 213.302-.189-1.232c-1.262-8.212-2.271-16.275-2.998-23.969l-.071-.752 3.486-1.358 34.934 13.611zm-1.124-24.638c.68 7.04 1.595 14.388 2.724 21.868l28.055-10.931-29.426-11.465z" fill="#dd052b"/><path d="m370.193 163.062-4.85-1.891-.002-.682c-.023-8.803.448-16.463 1.403-22.768l.086-.571 3.362-1.311 34.932 13.611zm-2.852-3.258 2.853 1.111 29.424-11.464-29.424-11.465-1.556.606c-.859 5.93-1.295 13.059-1.297 21.212z" fill="#dd052b"/><path d="m374.246 236.708-.24-1.159c-1.585-7.679-2.985-15.42-4.16-23.009l-.266-1.715 35.545 13.852zm-2.155-22.758c1.052 6.622 2.272 13.348 3.635 20.034l23.891-9.308z" fill="#dd052b"/><path d="m365.392 164.933-.022-1.438c-.016-1.016-.025-2.019-.027-3.005l-.003-1.466 7.608 2.965z" fill="#dd052b"/><path d="m370.191 188.137-3.536-1.378-.055-.618c-.71-7.979-1.125-15.599-1.231-22.647l-.01-.694 4.834-1.884 34.932 13.61zm-1.653-2.791 1.653.645 29.426-11.465-29.424-11.464-2.813 1.096c.119 6.622.508 13.743 1.158 21.188z" fill="#dd052b"/><path d="m366.901 189.419-.125-1.317c-.046-.487-.088-.967-.13-1.446l-.188-2.121 6.486 2.529z" fill="#dd052b"/><path d="m502.834 162.988-32.18-12.538 32.18-12.538 32.18 12.538z" fill="none"/><path d="m560.457 238.8c.078.645.152 1.297.223 1.951l-25.666 10.001-32.178-12.538 32.178-12.537 24.987 9.735c.163 1.106.316 2.234.456 3.388z" fill="none"/><path d="m541.783 153.088c-.021 7.261.447 13.599 1.252 19.312l-8.021 3.126-32.18-12.538 32.18-12.538z" fill="none"/><path d="m543.793 128.797-8.781-3.422 10.732-4.182c-.754 2.388-1.41 4.92-1.951 7.604z" fill="none"/><path d="m542.358 139.255c-.229 2.973-.383 5.805-.475 8.52l-6.87 2.676-32.18-12.538 32.178-12.537 8.781 3.422c-.655 3.258-1.147 6.734-1.434 10.457z" fill="none"/><path d="m556.006 217.498-20.992 8.179-32.18-12.538 32.179-12.538 17.749 6.916c1.12 3.232 2.22 6.521 3.244 9.981z" fill="none"/><path d="m560.001 235.412-24.987-9.735 20.992-8.179c1.598 5.408 3.006 11.233 3.995 17.914z" fill="none"/><path d="m545.744 121.193-10.732 4.182-32.177-12.536 32.179-12.538 17.213 6.706c-2.539 4.048-4.764 8.746-6.483 14.186z" fill="none"/><path d="m552.762 207.517-17.749-6.916 13.538-5.274c1.356 4.127 2.799 8.115 4.211 12.19z" fill="none"/><path d="m544.174 179.096c1.186 5.905 2.717 11.174 4.377 16.23l-13.538 5.274-32.178-12.537 32.179-12.537z" fill="none"/><path d="m502.835 188.063-32.179-12.538 32.178-12.537 32.18 12.538z" fill="none"/><path d="m570.527 89.062c-6.212 3.732-12.943 9.398-18.301 17.945l-17.213-6.706 32.18-12.538z" fill="none"/><path d="m567.191-12.538-32.178-12.538 32.178-12.538 32.18 12.538z" fill="none"/><path d="m567.193 12.537-32.179-12.538 32.177-12.537 32.18 12.538z" fill="none"/><path d="m567.191-37.614-32.176-12.537 32.178-12.537 32.178 12.537z" fill="none"/><path d="m567.193-62.688-32.179-12.539 32.178-12.537 32.179 12.538z" fill="none"/><path d="m567.191 37.612-32.176-12.537 32.178-12.538 32.178 12.537z" fill="none"/><path d="m599.371 75.226-32.178 12.537-32.179-12.537 32.177-12.538z" fill="none"/><path d="m535.012 50.149-32.176-12.537 32.179-12.537 32.176 12.537z" fill="none"/><path d="m535.014 100.301-32.18-12.538 32.18-12.537 32.179 12.537z" fill="none"/><path d="m599.371 50.149-32.18 12.539-32.179-12.539 32.179-12.537z" fill="none"/><path d="m535.014 75.226-32.18-12.539 32.178-12.538 32.179 12.539z" fill="none"/><path d="m561.898 265.352-26.887 10.476-32.178-12.537 32.18-12.538 26.842 10.458c.024 1.374.038 2.755.043 4.141z" fill="none"/><path d="m631.549 213.139-.641.249c.025-.157.048-.312.072-.471z" fill="none"/><path d="m631.551 112.838-4.83 1.882c-.643-1.529-1.326-3.054-2.056-4.564z" fill="none"/><path d="m663.729 175.526-29.583 11.525c.72-8.08 1.123-15.648 1.228-22.573z" fill="none"/><path d="m631.55 263.289-10.054 3.917c.174-2.507.408-5.026.719-7.555z" fill="none"/><path d="m663.728 150.45-28.328 11.037c.023-8.772-.453-16.416-1.392-22.615z" fill="none"/><path d="m631.549 238.214-5.651 2.202c.293-1.361.58-2.718.859-4.069z" fill="none"/><path d="m567.354 438.878-32.12-12.514 32.037-12.505 32.1 12.527z" fill="none"/><path d="m631.55 288.364-10.165 3.961c-.115-2.64-.205-5.316-.256-8.021z" fill="none"/><path d="m535.014 325.978 24.537-9.561c-.582 7.639-1.102 14.088-1.316 18.607z" fill="none"/><path d="m567.271 413.859-32.347-12.621 32.135-12.52 32.312 12.612z" fill="none"/><path d="m567.059 388.718-32.15-12.549 32.282-12.579 32.18 12.538z" fill="none"/><path d="m561.855 261.21-26.842-10.458 25.666-10.001c.7 6.447 1.059 13.369 1.176 20.459z" fill="none"/><path d="m572.027 361.706-4.836 1.884-32.178-12.537 23.383-9.11c.709 3.818 3.6 14.476 13.631 19.763z" fill="none"/><path d="m561.243 290.683-26.229 10.219-32.18-12.537 32.178-12.537 26.443 10.303c-.066 1.526-.137 3.046-.212 4.552z" fill="none"/><path d="m559.984 310.631-24.971-9.729 26.229-10.219c-.351 7.017-.806 13.771-1.258 19.948z" fill="none"/><path d="m599.371 25.074 32.18 12.538-32.18 12.537-32.18-12.537z" fill="none"/><path d="m561.455 286.13-26.443-10.303 26.887-10.476c.027 6.92-.152 13.939-.444 20.779z" fill="none"/><path d="m567.192-87.764 32.179-12.538 32.179 12.538-32.179 12.538z" fill="none"/><path d="m588.594 82.128s-8.402 1.129-18.066 6.934l-3.334-1.299 32.178-12.537 32.178 12.537-17.258 6.724c-6.333-6.777-14.624-11.625-25.698-12.359z" fill="none"/><path d="m599.371 50.149 32.18 12.539-32.18 12.538-32.18-12.538z" fill="none"/><path d="m535.014 175.526 8.021-3.126c.328 2.327.71 4.555 1.139 6.695z" fill="none"/><path d="m541.783 153.088-6.77-2.638 6.87-2.676c-.061 1.825-.094 3.596-.1 5.314z" fill="none"/><path d="m663.728 225.677 32.178 12.537-32.177 12.537-32.18-12.537z" fill="none"/><path d="m621.385 292.325 10.165-3.961 32.178 12.537-32.179 12.538-9.208-3.588c-.303-5.6-.691-11.468-.956-17.526z" fill="none"/><path d="m663.729 275.827 32.178 12.537-32.179 12.537-32.178-12.537z" fill="none"/><path d="m622.341 309.852 9.208 3.588-8.884 3.462c-.081-2.298-.194-4.649-.324-7.05z" fill="none"/><path d="m622.665 316.901 8.884-3.462 32.18 12.538-32.179 12.537-9.353-3.645c.664-5.451.698-11.487.468-17.968z" fill="none"/><path d="m622.197 334.87 9.353 3.645-10.925 4.256c.724-2.467 1.232-5.107 1.572-7.901z" fill="none"/><path d="m630.98 212.917c1.279-8.323 2.274-16.334 2.99-23.91l29.758 11.594-32.18 12.538z" fill="none"/><path d="m663.729 200.601 32.178 12.538-32.179 12.538-32.179-12.538z" fill="none"/><path d="m626.757 236.347c1.621-7.852 3.001-15.53 4.151-22.959l.641-.249 32.179 12.538-32.179 12.537z" fill="none"/><path d="m620.625 342.771 10.925-4.256 32.179 12.537-32.179 12.538-19.134-7.455c4.08-3.525 6.649-8.042 8.209-13.364z" fill="none"/><path d="m621.129 284.304c-.105-5.594-.033-11.312.367-17.098l10.054-3.917 32.179 12.538-32.179 12.537z" fill="none"/><path d="m663.729 250.751 32.178 12.539-32.178 12.537-32.179-12.538z" fill="none"/><path d="m622.215 259.651c.504-4.108 1.203-8.238 2.156-12.367.531-2.303 1.035-4.59 1.526-6.868l5.651-2.202 32.18 12.537-32.179 12.538z" fill="none"/><path d="m599.371 451.354 32.178 12.537-32.178 12.537-32.178-12.537z" fill="none"/><path d="m599.371 426.386 32.018 12.492-32.018 12.476-32.017-12.476z" fill="none"/><path d="m631.472 413.859 32.036 12.505-32.119 12.514-32.018-12.492z" fill="none"/><path d="m599.371 476.428 32.18 12.538-32.18 12.538-32.18-12.538z" fill="none"/><path d="m567.191 363.59 4.836-1.884c6.391 3.368 15.678 4.557 29.153.396 4.642-1.434 8.321-3.449 11.235-5.967l19.134 7.455-32.179 12.538z" fill="none"/><path d="m567.059 388.718 32.312-12.59 32.312 12.59-32.312 12.612z" fill="none"/><path d="m631.55-87.764 32.178 12.537-32.179 12.539-32.178-12.538z" fill="none"/><path d="m567.271 413.859 32.1-12.529 32.101 12.529-32.101 12.527z" fill="none"/><path d="m631.683 388.718 32.135 12.52-32.346 12.621-32.101-12.529z" fill="none"/><path d="m631.55 363.59 32.284 12.578-32.151 12.55-32.312-12.59z" fill="none"/><path d="m663.729 50.149 32.179 12.538-32.179 12.539-32.178-12.538z" fill="none"/><path d="m599.371 75.226 32.18-12.538 32.178 12.538-32.18 12.537z" fill="none"/><path d="m599.371 25.074 32.178-12.537 32.179 12.538-32.177 12.537z" fill="none"/><path d="m663.729 75.226 32.178 12.537-32.179 12.538-32.179-12.538z" fill="none"/><path d="m663.728 25.075 32.178 12.537-32.177 12.537-32.178-12.537z" fill="none"/><path d="m632.289 130.771c-1.467-4.987-3.252-10.535-5.568-16.051l4.83-1.882 32.179 12.538-30.013 11.693c-.406-2.333-.882-4.442-1.428-6.298z" fill="none"/><path d="m624.665 110.155c-2.731-5.66-6.106-11.102-10.374-15.669l17.258-6.724 32.179 12.538-32.177 12.537z" fill="none"/><path d="m567.193 12.537 32.178-12.537 32.178 12.537-32.178 12.537z" fill="none"/><path d="m634.146 187.052 29.583-11.525 32.178 12.537-32.178 12.537-29.758-11.594c.062-.658.117-1.304.175-1.955z" fill="none"/><path d="m663.728 100.301 32.178 12.538-32.177 12.537-32.178-12.538z" fill="none"/><path d="m599.371 50.149 32.18-12.537 32.178 12.537-32.178 12.539z" fill="none"/><path d="m567.193-62.688 32.178-12.538 32.178 12.538-32.178 12.537z" fill="none"/><path d="m631.549-62.688 32.179 12.537-32.177 12.537-32.18-12.537z" fill="none"/><path d="m695.906 162.989 32.178 12.536-32.178 12.538-32.177-12.537z" fill="none"/><path d="m635.373 164.479c.016-1.011.025-2.009.027-2.991l28.327-11.037 32.179 12.539-32.178 12.537z" fill="none"/><path d="m695.908 137.913 32.179 12.537-32.181 12.539-32.178-12.539z" fill="none"/><path d="m631.551-12.538 32.178 12.537-32.18 12.538-32.178-12.537z" fill="none"/><path d="m567.191-37.614 32.18-12.537 32.18 12.537-32.18 12.538z" fill="none"/><path d="m634.009 138.872c-.093-.615-.19-1.218-.292-1.803l30.013-11.693 32.179 12.537-32.181 12.537z" fill="none"/><path d="m567.191-12.538 32.18-12.538 32.18 12.538-32.18 12.538z" fill="none"/><path d="m631.551-37.614 32.178 12.538-32.178 12.538-32.18-12.538z" fill="none"/><path d="m567.193 214.212-15.225-5.932-.152-.436c-.436-1.26-.875-2.51-1.314-3.76-.964-2.746-1.961-5.586-2.901-8.447l-.296-.899 19.887-7.748 34.934 13.611zm-13.638-7.459 13.639 5.312 29.424-11.464-29.426-11.465-17.393 6.776c.846 2.539 1.73 5.061 2.591 7.51.388 1.108.778 2.216 1.165 3.331z" fill="#dd052b"/><path d="m547.93 196.642-.329-1.004c-2.004-6.104-3.363-11.145-4.407-16.346l-.359-1.791 27.111 10.562zm-2.401-15.945c.914 4.216 2.068 8.427 3.645 13.313l15.264-5.947z" fill="#dd052b"/><path d="m599.371 201.675-34.934-13.611 34.934-13.611 34.934 13.611zm-29.426-13.612 29.426 11.465 29.426-11.465-29.426-11.465z" fill="#dd052b"/><path d="m567.191 189.137-23.891-9.308-.107-.537c-.439-2.197-.826-4.469-1.148-6.752l-.11-.784 25.259-9.841 34.932 13.61zm-22.142-10.774 22.143 8.627 29.426-11.465-29.424-11.464-23.055 8.982c.265 1.796.57 3.581.91 5.32z" fill="#dd052b"/><path d="m567.193 164.062-26.412-10.291.002-.686c.006-1.73.04-3.529.102-5.344l.021-.659 26.285-10.242 34.934 13.611zm-24.406-11.657 24.406 9.51 29.424-11.464-29.426-11.465-24.329 9.479c-.04 1.335-.065 2.654-.075 3.94z" fill="#dd052b"/><path d="m542.221 173.79-.176-1.25c-.869-6.174-1.282-12.538-1.262-19.455l.004-1.458 29.16 11.361zm.564-19.238c.035 5.797.388 11.207 1.07 16.455l20.584-8.019z" fill="#dd052b"/><path d="m599.371 151.524-34.934-13.611 34.934-13.61 34.932 13.61zm-29.426-13.611 29.426 11.465 29.424-11.465-29.424-11.464z" fill="#dd052b"/><path d="m567.191 289.438-6.766-2.636.03-.715c.323-7.564.468-14.347.442-20.731l-.003-.687 6.296-2.453 34.934 13.611zm-4.707-3.98 4.707 1.833 29.426-11.464-29.426-11.465-4.291 1.672c.012 6.013-.124 12.382-.416 19.424z" fill="#dd052b"/><path d="m599.371 176.599-34.932-13.61 34.932-13.61 34.932 13.61zm-29.424-13.611 29.424 11.464 29.424-11.464-29.424-11.464z" fill="#dd052b"/><path d="m560.904 266.812-.006-1.455c-.006-1.383-.02-2.759-.043-4.129l-.025-1.49 9.115 3.552zm1.973-4.131c.005.404.009.808.012 1.211l1.549-.603z" fill="#dd052b"/><path d="m560.168 292.175.076-1.542c.075-1.504.146-3.021.212-4.546l.061-1.396 9.429 3.673zm2.225-4.607c-.025.542-.05 1.083-.076 1.622l2.121-.826z" fill="#dd052b"/><path d="m567.191 264.362-6.324-2.465-.012-.671c-.124-7.499-.518-14.352-1.17-20.368l-.082-.762 7.589-2.956 34.933 13.61zm-4.347-3.841 4.348 1.694 29.426-11.465-29.425-11.464-5.438 2.118c.592 5.709.958 12.132 1.089 19.117z" fill="#dd052b"/><path d="m559.825 242.157-.14-1.299c-.07-.65-.144-1.299-.221-1.938-.139-1.146-.291-2.265-.453-3.362l-.251-1.702 11.187 4.358zm1.405-5.193c.076.566.149 1.138.219 1.716.027.222.054.444.08.667l2.908-1.133z" fill="#dd052b"/><path d="m555.355 218.825-.309-1.043c-1.104-3.732-2.307-7.271-3.23-9.938l-.708-2.045 18.839 7.339zm-.947-9.594c.699 2.057 1.486 4.439 2.244 6.941l7.787-3.034z" fill="#dd052b"/><path d="m567.192 239.287-8.096-3.153-.085-.575c-.883-5.958-2.143-11.606-3.965-17.777l-.26-.882 12.406-4.834 34.932 13.611zm-6.288-4.597 6.288 2.45 29.425-11.464-29.424-11.465-9.971 3.885c1.655 5.725 2.834 11.038 3.682 16.594z" fill="#dd052b"/><path d="m540.833 149.257.052-1.516c.094-2.793.254-5.674.477-8.562.278-3.619.767-7.178 1.451-10.579l.234-1.167 26.898 10.48zm3.714-19.093c-.551 2.964-.951 6.043-1.191 9.167-.18 2.34-.318 4.674-.414 6.959l21.496-8.377z" fill="#dd052b"/><path d="m599.371 352.125-34.934-13.61 34.934-13.61 23.912 9.315-.094.771c-.361 2.975-.887 5.612-1.605 8.061l-.138.473zm-29.424-13.61 29.424 11.464 20.43-7.96c.559-1.996.988-4.135 1.306-6.5l-21.735-8.468z" fill="#dd052b"/><path d="m599.371 327.051-34.934-13.611 34.934-13.61 23.934 9.324.035.645c.13 2.407.243 4.766.324 7.068l.025.709zm-29.424-13.612 29.424 11.465 22.269-8.677c-.07-1.858-.161-3.752-.263-5.678l-22.006-8.574z" fill="#dd052b"/><path d="m623.034 336.27-26.417-10.292 26.998-10.52.049 1.408c.271 7.624.124 13.214-.475 18.125zm-20.909-10.292 19.224 7.488c.431-4.187.544-8.956.362-15.119z" fill="#dd052b"/><path d="m623.423 311.347-26.806-10.444 25.705-10.016.062 1.395c.175 3.976.402 7.885.622 11.665.115 1.98.229 3.932.334 5.852zm-21.298-10.445 19.132 7.454c-.079-1.416-.163-2.848-.247-4.293-.195-3.346-.396-6.792-.561-10.301z" fill="#dd052b"/><path d="m599.371 301.976-34.934-13.611 34.934-13.61 22.745 8.861.013.67c.047 2.542.131 5.157.255 7.997l.031.715zm-29.426-13.612 29.426 11.465 20.984-8.176c-.098-2.336-.168-4.528-.213-6.66l-20.771-8.093z" fill="#dd052b"/><path d="m599.371 276.9-34.934-13.611 34.934-13.611 23.932 9.324-.096.771c-.295 2.4-.535 4.925-.713 7.502l-.045.632zm-29.426-13.611 29.426 11.465 21.172-8.25c.156-2.119.354-4.199.587-6.202l-21.759-8.478z" fill="#dd052b"/><path d="m622.156 285.777-25.539-9.95 25.985-10.125-.108 1.572c-.363 5.24-.482 10.805-.365 17.01zm-20.031-9.95 17.98 7.004c-.066-5.065.03-9.714.292-14.123z" fill="#dd052b"/><path d="m585.459 365.759c-5.234 0-9.91-1.066-13.898-3.168l-1.938-1.021 29.748-11.591 14.955 5.827-1.256 1.086c-3.134 2.707-6.926 4.724-11.595 6.166-5.803 1.791-11.192 2.701-16.016 2.701zm-10.887-3.971c6.929 2.814 15.826 2.596 26.313-.643 3.759-1.16 6.902-2.707 9.56-4.705l-11.074-4.315z" fill="#dd052b"/><path d="m558.433 317.926.121-1.585c.143-1.862.287-3.791.434-5.783l.099-1.35 10.861 4.231zm2.449-5.872c-.071.967-.143 1.919-.214 2.854l3.77-1.469z" fill="#dd052b"/><path d="m612.614 357.285-15.997-6.233 25.539-9.951-.572 1.951c-1.711 5.842-4.496 10.369-8.514 13.84zm-10.489-6.233 10.085 3.93c3.028-2.75 5.271-6.208 6.813-10.514z" fill="#dd052b"/><path d="m567.191 138.986-24.545-9.563.166-.824c.534-2.648 1.199-5.24 1.979-7.707l.144-.456 22.257-8.671 34.934 13.611zm-22.248-10.814 22.248 8.668 29.426-11.464-29.426-11.465-20.636 8.039c-.617 2.004-1.157 4.092-1.612 6.222z" fill="#dd052b"/><path d="m567.192 314.513-8.259-3.219.053-.736c.354-4.826.867-12.143 1.258-19.926l.033-.646 6.914-2.694 34.934 13.611zm-6.157-4.545 6.157 2.398 29.425-11.464-29.426-11.465-4.982 1.942c-.367 7.177-.834 13.901-1.174 18.589z" fill="#dd052b"/><path d="m623.051 261.05-26.434-10.299 30.65-11.941-.393 1.817c-.492 2.282-.997 4.575-1.529 6.882-.897 3.888-1.617 8.014-2.139 12.264zm-20.926-10.299 19.26 7.504c.514-3.87 1.189-7.631 2.012-11.195.389-1.687.764-3.363 1.129-5.035z" fill="#dd052b"/><path d="m571.965 362.804-.404-.213c-10.643-5.609-13.52-17.083-14.147-20.466l-.151-.813 9.931-3.87 34.933 13.61zm-12.421-20.236c.84 3.831 3.735 13.163 12.552 18.038l24.521-9.555-29.425-11.464z" fill="#dd052b"/><path d="m557.635 343.312-.221-1.188c-.125-.671-.194-1.19-.215-1.431-.104-1.177-.092-2.994.036-5.717l.065-1.391 12.646 4.928zm1.541-6.848c-.066 1.854-.061 3.189.016 4.057.001.012.002.023.004.037l5.242-2.043z" fill="#dd052b"/><path d="m567.192 339.588-9.991-3.893.034-.718c.183-3.832.585-9.082 1.052-15.161l.314-4.103 8.591-3.348 34.933 13.611zm-7.922-5.234 7.923 3.087 29.425-11.464-29.425-11.465-6.692 2.607-.219 2.85c-.437 5.691-.818 10.654-1.012 14.385z" fill="#dd052b"/><path d="m599.371 126.449-34.934-13.611 34.934-13.611 26.023 10.14.171.354c.712 1.475 1.411 3.026 2.077 4.613l.398.945zm-29.426-13.611 29.426 11.465 26.025-10.14c-.477-1.101-.965-2.179-1.462-3.219l-24.563-9.571z" fill="#dd052b"/><path d="m599.371 251.824-34.934-13.61 34.934-13.61 28.536 11.118-.171.827c-.279 1.354-.568 2.714-.861 4.077l-.113.526zm-29.424-13.61 29.424 11.464 25.662-9.998c.193-.905.385-1.808.572-2.708l-26.234-10.222z" fill="#dd052b"/><path d="m635.256 140.431-6.463-2.519 5.7-2.218.209 1.204c.103.592.202 1.202.296 1.825z" fill="#dd052b"/><path d="m626.67 112.01-30.053-11.71 17.941-6.991.463.495c3.984 4.264 7.434 9.471 10.544 15.917zm-24.545-11.71 20.479 7.979c-2.574-4.928-5.455-9.16-8.586-12.612z" fill="#dd052b"/><path d="m544.162 122.884.629-1.992c1.65-5.227 3.867-10.077 6.588-14.416l.439-.701 18.127 7.063zm8.479-14.643c-2.09 3.447-3.858 7.22-5.273 11.246l17.07-6.649z" fill="#dd052b"/><path d="m567.191 113.911-16.454-6.411.642-1.024c4.722-7.531 10.99-13.68 18.633-18.271l.422-.252 31.691 12.348zm-13.462-7.392 13.463 5.246 29.426-11.465-25.993-10.127c-6.837 4.188-12.514 9.681-16.896 16.346z" fill="#dd052b"/><path d="m599.371 101.373-31.105-12.12 1.746-1.049c9.73-5.844 18.098-7.02 18.449-7.067l.1-.013.1.006c10.271.682 19.14 4.945 26.361 12.674l1.008 1.078zm-26.537-12.485 26.537 10.339 13.156-5.126c-6.644-6.645-14.675-10.332-23.894-10.968-.875.136-7.735 1.312-15.799 5.755z" fill="#dd052b"/><path d="m631.549 138.986-34.932-13.61 30.648-11.941.377.898c2.555 6.082 4.423 12.133 5.605 16.155.549 1.867 1.039 4.023 1.454 6.409l.14.807zm-29.424-13.61 29.424 11.464 1.038-.403c-.369-1.992-.792-3.8-1.257-5.384-1.111-3.776-2.832-9.361-5.158-15.046z" fill="#dd052b"/><path d="m599.371 226.75-34.932-13.611 34.932-13.61 32.721 12.748-.287 1.836zm-29.424-13.611 29.424 11.465 29.423-11.466-29.423-11.463z" fill="#dd052b"/><path d="m631.779 214.302-35.162-13.7 34.934-13.611 3.486 1.358-.07.752c-.728 7.693-1.736 15.757-2.998 23.969zm-29.654-13.7 28.055 10.931c1.129-7.48 2.044-14.828 2.724-21.868l-1.353-.527z" fill="#dd052b"/><path d="m631.549 164.062-34.932-13.61 34.932-13.611 3.362 1.311.087.571c.954 6.305 1.426 13.965 1.402 22.768l-.002.682zm-29.424-13.611 29.424 11.464 2.853-1.111c-.003-8.152-.438-15.281-1.297-21.211l-1.556-.606z" fill="#dd052b"/><path d="m627.496 237.708-30.879-12.031 35.545-13.852-.266 1.715c-1.176 7.589-2.574 15.33-4.16 23.009zm-25.371-12.031 23.891 9.308c1.363-6.687 2.584-13.412 3.635-20.034z" fill="#dd052b"/><path d="m636.351 165.933-7.556-2.944 7.608-2.965-.003 1.466c-.002.986-.012 1.989-.027 3.005z" fill="#dd052b"/><path d="m631.551 189.137-34.934-13.611 34.932-13.61 4.834 1.884-.01.694c-.106 7.049-.521 14.668-1.231 22.647l-.056.618zm-29.426-13.612 29.426 11.465 1.653-.645c.649-7.444 1.039-14.565 1.157-21.188l-2.812-1.096z" fill="#dd052b"/><path d="m634.842 190.419-6.044-2.355 6.485-2.529-.188 2.121c-.041.479-.084.959-.129 1.446z" fill="#dd052b"/><path d="m710.789 112.779-18.516-43.891-18.515 43.891 16.242-6.9v197.929h5v-197.737z" fill="#192226"/><path d="m521.009 131.779-18.516-43.891-18.515 43.891 16.022-6.807v239.836h5v-239.83z" fill="#dd052b"/><path d="m254.731 172.848c-3.86 0-7-3.14-7-7s3.14-7 7-7 7 3.14 7 7-3.14 7-7 7zm0-9c-1.103 0-2 .897-2 2s.897 2 2 2 2-.897 2-2-.897-2-2-2z" fill="#192226"/><path d="m254.731 213.848c-3.86 0-7-3.14-7-7s3.14-7 7-7 7 3.14 7 7-3.14 7-7 7zm0-9c-1.103 0-2 .897-2 2s.897 2 2 2 2-.897 2-2-.897-2-2-2z" fill="#192226"/><path d="m197.731 172.848c-3.86 0-7-3.14-7-7s3.14-7 7-7 7 3.14 7 7-3.14 7-7 7zm0-9c-1.103 0-2 .897-2 2s.897 2 2 2 2-.897 2-2-.897-2-2-2z" fill="#192226"/><path d="m197.731 213.848c-3.86 0-7-3.14-7-7s3.14-7 7-7 7 3.14 7 7-3.14 7-7 7zm0-9c-1.103 0-2 .897-2 2s.897 2 2 2 2-.897 2-2-.897-2-2-2z" fill="#192226"/><path d="m796.647 172.348c-3.859 0-7-3.14-7-7s3.141-7 7-7 7 3.14 7 7-3.14 7-7 7zm0-9c-1.103 0-2 .897-2 2s.897 2 2 2 2-.897 2-2-.897-2-2-2z" fill="#192226"/><path d="m796.647 213.348c-3.859 0-7-3.14-7-7s3.141-7 7-7 7 3.14 7 7-3.14 7-7 7zm0-9c-1.103 0-2 .897-2 2s.897 2 2 2 2-.897 2-2-.897-2-2-2z" fill="#192226"/><path d="m739.647 172.348c-3.86 0-7-3.14-7-7s3.14-7 7-7 7 3.14 7 7-3.139 7-7 7zm0-9c-1.103 0-2 .897-2 2s.897 2 2 2 2-.897 2-2-.897-2-2-2z" fill="#192226"/><path d="m739.647 213.348c-3.86 0-7-3.14-7-7s3.14-7 7-7 7 3.14 7 7-3.139 7-7 7zm0-9c-1.103 0-2 .897-2 2s.897 2 2 2 2-.897 2-2-.897-2-2-2z" fill="#192226"/></svg>